<?xml version="1.0" encoding="UTF-8" standalone="no"?>
<!-- Created with Inkscape (http://www.inkscape.org/) -->

<svg
   width="87.082634mm"
   height="11.357341mm"
   viewBox="0 0 87.082634 11.357341"
   version="1.1"
   id="svg895"
   inkscape:version="1.2.2 (b0a8486, 2022-12-01)"
   sodipodi:docname="border.svg"
   xmlns:inkscape="http://www.inkscape.org/namespaces/inkscape"
   xmlns:sodipodi="http://sodipodi.sourceforge.net/DTD/sodipodi-0.dtd"
   xmlns="http://www.w3.org/2000/svg"
   xmlns:svg="http://www.w3.org/2000/svg">
  <sodipodi:namedview
     id="namedview897"
     pagecolor="#ffffff"
     bordercolor="#000000"
     borderopacity="0.25"
     inkscape:showpageshadow="2"
     inkscape:pageopacity="0.0"
     inkscape:pagecheckerboard="0"
     inkscape:deskcolor="#d1d1d1"
     inkscape:document-units="mm"
     showgrid="false"
     inkscape:zoom="2.1568741"
     inkscape:cx="200.75349"
     inkscape:cy="44.508857"
     inkscape:window-width="1280"
     inkscape:window-height="584"
     inkscape:window-x="0"
     inkscape:window-y="23"
     inkscape:window-maximized="0"
     inkscape:current-layer="layer1" />
  <defs
     id="defs892" />
  <g
     inkscape:label="Layer 1"
     inkscape:groupmode="layer"
     id="layer1"
     transform="translate(-11.025401,-85.712609)">
    <path
       d="m 475.59028,541.93265 c -1.10066,-0.61701 -2.10608,-1.24707 -3.16441,-1.75577 -1.00895,-0.48437 -2.00025,-0.14923 -2.49061,0.75423 -0.60325,1.10667 0.15522,1.60691 0.95955,2.09303 2.4765,1.49614 5.13645,1.21497 7.7717,0.72038 1.25941,-0.23601 1.54516,-0.84738 1.19944,-2.16641 -0.71967,-2.7432 -2.49767,-4.86516 -4.36739,-6.87599 -0.67028,-0.71967 -1.69333,-0.94298 -2.71639,-0.14641 -0.35983,1.75613 0.63147,3.03601 1.73567,4.22417 0.78317,0.8449 1.57692,1.6196 1.07244,3.15277 z m 309.97175,5.1375 c 1.17475,-0.5715 2.22955,-0.254 3.31963,0.10866 1.43228,0.4766 2.8822,0.56444 4.15925,-0.43709 1.27706,-0.99978 1.13595,-2.61373 -0.27163,-3.37891 -0.34925,-0.1905 -0.75142,-0.33867 -1.143,-0.39299 -3.60892,-0.50553 -7.239,-0.73237 -10.85498,-0.15911 -1.78505,0.28364 -2.22955,1.00154 -1.57339,2.73897 1.13242,2.99897 3.28084,5.12304 6.25123,6.35 0.89605,0.36901 2.06375,0.7105 2.63525,-0.30057 0.6103,-1.08867 -0.45861,-1.72543 -1.23473,-2.28776 -0.70555,-0.51223 -1.64394,-0.8389 -1.28763,-2.2412 z m -117.09401,-9.47737 c -0.41628,-1.28023 -0.62442,-2.68499 -1.2947,-3.816 -1.49577,-2.52307 -3.88408,-2.77636 -6.07836,-0.84737 -3.28083,2.88607 -3.26319,9.6273 -0.007,12.48974 0.79022,0.69427 1.48519,0.4311 2.21544,0.0409 3.10445,-1.66229 4.826,-4.20547 5.16467,-7.8673 z m -141.68968,4.53884 c 3.91936,-0.84491 7.62,-2.24684 10.33639,-5.45501 1.44639,-1.7025 1.12536,-4.14196 -0.49036,-5.68783 -2.42005,-2.31564 -6.01839,-2.419 -8.56544,-0.24659 -3.05859,2.61373 -3.683,7.57766 -1.28059,11.38943 z m -55.16386,-4.197 c -0.25047,-1.10384 -0.55739,-2.03765 -0.65264,-2.99191 -0.21167,-2.09973 0.97719,-3.19299 2.93511,-2.53259 2.75519,0.93239 5.05531,2.47579 6.12775,5.42219 1.82386,5.01474 1.84503,5.0927 7.14375,5.7658 3.60539,0.4572 7.24606,0.64523 10.87261,0.90841 6.87564,0.49882 13.74775,0.38276 20.59517,-0.4064 1.98261,-0.2286 3.92995,-0.78493 6.03956,-1.22167 -0.254,-1.52047 -0.4692,-2.77707 -0.67028,-4.03507 -0.46567,-2.85856 0.1658,-5.47229 1.81328,-7.83696 2.794,-4.00721 8.0645,-4.53285 11.60286,-1.17017 2.65642,2.52483 2.58233,6.5017 -0.46567,8.9341 -2.25072,1.79493 -4.59669,3.5881 -7.50358,4.33599 -0.5327,0.13688 -1.03011,0.42827 -1.78859,0.75354 1.17123,2.49837 2.93512,4.38044 5.1047,5.71747 8.72772,5.37033 17.39195,4.04459 25.1707,-1.4725 2.33538,-1.657 4.25097,-3.67277 5.94783,-5.96124 2.02142,-2.72803 4.09928,-5.4229 6.2865,-8.02217 4.44147,-5.28143 9.70492,-9.59696 16.22072,-11.97186 9.18986,-3.34963 18.35856,-3.2946 27.34028,1.04316 4.39914,2.12513 8.37848,4.88774 12.32253,7.7156 5.77497,4.14091 11.44059,8.44304 17.28964,12.47811 4.75897,3.28154 10.05064,4.7057 16.26306,3.4484 -0.508,-0.88124 -0.92075,-1.59914 -1.3335,-2.3181 -2.48709,-4.32647 -1.59456,-10.10568 2.05316,-13.3216 2.10962,-1.85984 4.40267,-1.88101 6.55462,-0.0624 3.51366,2.97004 4.02519,8.72737 0.97013,12.53243 -1.09361,1.36384 -2.51883,2.46204 -4.03225,3.90631 0.82903,0.51576 1.58045,1.0795 2.40948,1.48167 6.30061,3.05752 12.91519,4.02696 19.84022,2.99402 1.91558,-0.28469 3.85233,-0.44132 5.78556,-0.62089 4.31094,-0.4004 8.09625,-2.18016 11.58522,-4.58187 3.41489,-2.35303 6.26181,-5.34177 8.93233,-8.5217 3.01625,-3.59269 6.18067,-7.05803 9.29217,-10.57064 3.52072,-3.97263 8.2162,-5.66702 13.22917,-6.55673 8.17033,-1.44956 15.37053,1.1363 21.8828,5.85223 3.0727,2.22321 5.83848,4.86587 8.80534,7.23653 2.91042,2.32234 6.06072,4.20194 9.48267,5.77851 2.5788,1.18956 4.9283,1.0742 7.50358,0.68156 3.41842,-0.51999 6.78744,-0.13476 10.03653,1.04387 0.66675,0.2413 1.34055,0.61137 1.85561,1.08797 1.58397,1.47073 1.61925,3.29247 -0.13053,4.55824 -1.26294,0.91123 -2.84339,1.3776 -4.49792,2.14066 0.0106,0.0998 0.0494,0.46884 0.10231,0.83714 0.34572,2.3562 -0.84667,3.7465 -3.25261,3.61209 -1.72156,-0.096 -3.3655,-0.57856 -4.66725,-1.8034 -2.15195,-2.02636 -3.97933,-4.28766 -4.60728,-7.2637 -0.29633,-1.40617 -1.05481,-2.22602 -2.35656,-2.8194 -4.58611,-2.0955 -8.77358,-4.75826 -12.49538,-8.249 -4.13809,-3.87879 -8.63601,-7.3593 -13.97706,-9.5183 -1.4852,-0.60184 -3.02331,-1.20226 -4.59317,-1.4605 -4.52614,-0.74083 -9.05228,-0.63323 -13.42319,0.90841 -4.00403,1.41146 -7.08378,4.12432 -9.82487,7.28909 -3.60186,4.15608 -7.18608,8.33014 -10.8973,12.38673 -2.79753,3.05894 -6.08895,5.42114 -9.94834,7.15751 -3.15736,1.4224 -6.27944,2.39184 -9.73313,2.50473 -2.25778,0.0727 -4.51203,0.40463 -6.7557,0.72107 -7.3025,1.03223 -13.97706,-0.74083 -20.16831,-4.5413 -1.26647,-0.77576 -2.37772,-0.9324 -3.85233,-0.7112 -5.24228,0.78387 -10.25172,0.363 -14.85195,-2.82964 -3.38666,-2.35126 -6.82625,-4.58399 -10.033,-7.2136 -6.25827,-5.13256 -12.88697,-9.82133 -20.04836,-13.60769 -3.24908,-1.71768 -6.94972,-2.59504 -10.45633,-3.81247 -0.60325,-0.20814 -1.27,-0.28858 -1.91206,-0.30128 -10.58686,-0.20002 -19.88256,2.92418 -27.53431,10.50855 -3.35491,3.3274 -6.23711,7.00546 -8.80886,10.93999 -4.33916,6.64528 -10.65741,10.50114 -18.25625,11.70587 -6.52286,1.034 -12.71411,-0.61383 -17.73414,-5.34987 -0.88194,-0.83256 -1.89442,-1.5808 -2.57528,-2.5587 -1.13241,-1.62983 -2.37066,-1.90676 -4.318,-1.4919 -7.00264,1.49084 -14.15344,1.47144 -21.26544,1.44181 -6.05367,-0.0261 -12.11086,-0.42404 -18.11514,-1.41147 -1.12889,-0.18521 -2.38478,0.133 -3.54189,0.40217 -3.23145,0.75353 -6.3747,0.98143 -9.41564,-0.74154 -1.3335,-0.75424 -2.56822,-1.55363 -2.4377,-3.27413 0.11995,-1.60937 1.34409,-2.29094 2.72698,-2.7365 0.22577,-0.072 0.43391,-0.1905 0.80786,-0.35983"
       style="fill:#000000;fill-opacity:1;fill-rule:nonzero;stroke:none;stroke-width:0.0352778"
       id="path319" />
    <path
       d="m 13.059284,92.999482 c -0.318283,-0.202898 -0.611856,-0.410091 -0.91429,-0.577377 -0.288298,-0.159281 -0.536971,-0.04907 -0.628527,0.248028 -0.112837,0.363921 0.109688,0.528422 0.343786,0.688282 0.720735,0.491995 1.414352,0.399537 2.092318,0.236891 0.32402,-0.07762 0.373754,-0.278654 0.225802,-0.712413 -0.307872,-0.902086 -0.87,-1.599882 -1.451724,-2.261135 -0.208488,-0.236658 -0.489397,-0.310092 -0.72682,-0.04814 -0.02057,0.577493 0.296965,0.998374 0.640535,1.389092 0.243778,0.277843 0.487368,0.532599 0.41892,1.036775 z m 82.44538,1.689442 c 0.287258,-0.187934 0.580606,-0.08353 0.885234,0.03574 0.400264,0.156729 0.78863,0.185615 1.084691,-0.143736 0.296137,-0.328769 0.189885,-0.859511 -0.216129,-1.111135 -0.10077,-0.06264 -0.213771,-0.111364 -0.319961,-0.129231 -0.978896,-0.166242 -1.951524,-0.240836 -2.886289,-0.05232 -0.461426,0.09327 -0.54873,0.32935 -0.300588,0.900696 0.428271,0.986194 1.088752,1.684685 1.929022,2.088165 0.253432,0.121347 0.577749,0.233642 0.686239,-0.09884 0.115475,-0.358005 -0.195228,-0.567401 -0.425085,-0.75232 -0.209002,-0.168454 -0.471858,-0.275878 -0.437134,-0.737016 z M 64.038988,91.572338 c -0.165014,-0.420997 -0.280125,-0.882945 -0.506151,-1.254871 -0.504368,-0.829698 -1.148717,-0.912992 -1.648545,-0.278655 -0.747247,0.949072 -0.455129,3.165891 0.530693,4.10719 0.239226,0.228305 0.412357,0.141763 0.589435,0.01349 0.752641,-0.546635 1.100878,-1.382945 1.034582,-2.587121 z m -37.392546,1.492575 c 1.003667,-0.277843 1.925557,-0.738864 2.509343,-1.79385 0.311092,-0.559861 0.121919,-1.362065 -0.372601,-1.870418 -0.740704,-0.761484 -1.699644,-0.795474 -2.282672,-0.08109 -0.699907,0.859511 -0.653887,2.491877 0.14593,3.745357 z M 11.834148,91.684751 c -0.113509,-0.362993 -0.234741,-0.670069 -0.300697,-0.983874 -0.145681,-0.690487 0.123076,-1.049999 0.670611,-0.83283 0.770628,0.306612 1.446588,0.814153 1.856707,1.783062 0.697638,1.64907 0.706578,1.674708 2.140872,1.896053 0.975898,0.150348 1.949676,0.212182 2.922914,0.298724 1.845173,0.164038 3.663194,0.125866 5.44596,-0.133639 0.516182,-0.07517 1.009032,-0.258121 1.550027,-0.401741 -0.132211,-0.5 -0.242876,-0.913224 -0.349857,-1.326913 -0.245413,-0.940021 -0.189347,-1.799534 0.146851,-2.577144 0.570302,-1.317748 1.945997,-1.490602 3.028001,-0.384803 0.812325,0.830278 0.96224,2.13805 0.25741,2.937934 -0.520514,0.590254 -1.066372,1.179929 -1.805595,1.425868 -0.135471,0.04501 -0.254996,0.140836 -0.442328,0.247796 0.417219,0.821578 0.965375,1.440486 1.597911,1.880162 2.54419,1.766007 4.786025,1.330044 6.614255,-0.484223 0.548857,-0.544896 0.971054,-1.207772 1.323604,-1.960324 0.419901,-0.897099 0.856191,-1.783292 1.325567,-2.638048 0.952994,-1.736774 2.165224,-3.155915 3.792408,-3.936888 2.294977,-1.101508 4.729507,-1.08341 7.297047,0.343038 1.257573,0.69884 2.43097,1.607308 3.597786,2.537237 1.708495,1.361717 3.39485,2.776449 5.118482,4.103362 1.402339,1.079117 2.866783,1.547446 4.461145,1.13399 -0.172333,-0.289792 -0.312432,-0.52587 -0.452581,-0.762296 -0.844222,-1.422737 -0.853884,-3.3232 -0.02336,-4.380739 0.480317,-0.611602 1.08769,-0.618562 1.736083,-0.02054 1.058708,0.976681 1.439888,2.869952 0.791719,4.121226 -0.23195,0.448492 -0.563197,0.809628 -0.903076,1.28457 0.241904,0.169605 0.46527,0.354988 0.702337,0.487238 1.801732,1.005452 3.597721,1.324245 5.390684,0.984571 0.496011,-0.09362 1.003094,-0.145128 1.508264,-0.204176 1.126492,-0.131665 2.054734,-0.716938 2.87785,-1.506728 0.805538,-0.773781 1.433304,-1.756612 2.006126,-2.802318 0.646933,-1.181437 1.338602,-2.320995 2.014219,-3.476099 0.764555,-1.30638 1.937874,-1.863572 3.229733,-2.156147 2.105541,-0.476682 4.125798,0.373665 6.054393,1.924476 0.909891,0.731091 1.75625,1.600115 2.644354,2.379697 0.871066,0.763688 1.786896,1.381786 2.76186,1.90023 0.734802,0.391183 1.353133,0.353248 2.019538,0.224131 0.884634,-0.170999 1.794761,-0.04431 2.706904,0.34327 0.187159,0.07935 0.381676,0.201044 0.538628,0.357772 0.482891,0.483643 0.569927,1.082714 0.159733,1.498955 -0.296166,0.299652 -0.695529,0.453015 -1.10189,0.703944 0.0071,0.03283 0.0331,0.154177 0.06284,0.27529 0.192175,0.774825 -0.06485,1.232017 -0.708805,1.187818 -0.46077,-0.03155 -0.917438,-0.190255 -1.314977,-0.59304 C 94.126555,95.7163 93.545382,94.97268 93.251914,93.994027 93.113347,93.531614 92.877187,93.262009 92.506573,93.066881 91.200662,92.377787 89.976313,91.50215 88.840186,90.354239 87.57709,89.078718 86.23552,87.934171 84.726641,87.224194 84.306998,87.026283 83.873382,86.828835 83.445933,86.743917 82.213694,86.500297 81.01763,86.53568 79.923891,87.04264 c -1.001966,0.464153 -1.703259,1.356264 -2.295448,2.396983 -0.778256,1.366703 -1.551065,2.739324 -2.362575,4.073313 -0.611671,1.005917 -1.384065,1.782714 -2.33381,2.353711 -0.776902,0.467749 -1.563766,0.786543 -2.475113,0.823666 -0.595824,0.0239 -1.179655,0.133069 -1.761343,0.237123 -1.893123,0.339442 -3.739285,-0.243621 -5.543689,-1.493387 -0.369036,-0.255105 -0.670498,-0.306612 -1.052235,-0.233875 -1.3572,0.257773 -2.703999,0.119373 -4.060433,-0.930509 -0.998639,-0.773202 -2.006258,-1.507424 -2.969038,-2.372156 -1.878982,-1.687817 -3.837304,-3.229696 -5.898454,-4.474822 -0.935126,-0.56485 -1.954205,-0.853365 -2.936316,-1.253712 -0.168897,-0.06844 -0.349196,-0.0949 -0.520057,-0.09907 -2.816911,-0.06578 -5.149569,0.961599 -6.855963,3.455681 -0.748085,1.094198 -1.355819,2.30371 -1.870263,3.597561 -0.867705,2.185265 -2.37934,3.453245 -4.343719,3.849416 -1.686233,0.340024 -3.398849,-0.201856 -4.932455,-1.759278 -0.269451,-0.273782 -0.569933,-0.519837 -0.792243,-0.841415 -0.369892,-0.535963 -0.710171,-0.62703 -1.209049,-0.490603 -1.794026,0.490254 -3.691752,0.483875 -5.579618,0.474129 -1.606973,-0.0086 -3.230733,-0.139443 -4.865593,-0.464152 -0.307358,-0.0609 -0.626941,0.04373 -0.922411,0.132248 -0.825075,0.247796 -1.64917,0.322738 -2.529309,-0.243851 -0.385898,-0.248027 -0.747518,-0.510904 -0.786252,-1.076681 -0.0368,-0.529233 0.258862,-0.753364 0.606703,-0.899883 0.05682,-0.02367 0.106984,-0.06264 0.198958,-0.118329"
       style="fill:#ffe6d5;fill-opacity:1;fill-rule:nonzero;stroke:none;stroke-width:0.0104194"
       id="path319-1" />
  </g>
</svg>
