<?xml version="1.0" encoding="UTF-8" standalone="no"?>
<!-- Created with Inkscape (http://www.inkscape.org/) -->

<svg
   width="170.00323mm"
   height="21.981134mm"
   viewBox="0 0 170.00323 21.981134"
   version="1.1"
   id="svg710"
   sodipodi:docname="heartborder.svg"
   inkscape:version="1.2.2 (b0a8486, 2022-12-01)"
   xmlns:inkscape="http://www.inkscape.org/namespaces/inkscape"
   xmlns:sodipodi="http://sodipodi.sourceforge.net/DTD/sodipodi-0.dtd"
   xmlns="http://www.w3.org/2000/svg"
   xmlns:svg="http://www.w3.org/2000/svg">
  <sodipodi:namedview
     id="namedview712"
     pagecolor="#ffffff"
     bordercolor="#000000"
     borderopacity="0.25"
     inkscape:showpageshadow="2"
     inkscape:pageopacity="0.0"
     inkscape:pagecheckerboard="0"
     inkscape:deskcolor="#d1d1d1"
     inkscape:document-units="mm"
     showgrid="false"
     inkscape:zoom="1.078437"
     inkscape:cx="229.96243"
     inkscape:cy="71.399625"
     inkscape:window-width="1280"
     inkscape:window-height="584"
     inkscape:window-x="0"
     inkscape:window-y="23"
     inkscape:window-maximized="0"
     inkscape:current-layer="layer1" />
  <defs
     id="defs707" />
  <g
     inkscape:label="Layer 1"
     inkscape:groupmode="layer"
     id="layer1"
     transform="translate(-15.270527,-139.59121)">
    <path
       d="m 174.09326,156.06261 c -0.14529,-0.0835 -0.24029,-0.18076 -0.3595,-0.19335 -0.082,-0.009 -0.19558,0.0995 -0.29617,0.15674 0.10804,0.0641 0.20117,0.143 0.3297,0.1819 0.0447,0.0137 0.17136,-0.0732 0.32597,-0.14529 z M 122.1782,141.68409 c -0.13803,0.0252 -0.27624,0.0503 -0.41445,0.0755 0.17621,0.29288 0.35279,0.58461 0.529,0.87635 0.0684,-0.0126 0.13635,-0.024 0.20415,-0.0355 -0.10636,-0.30546 -0.21234,-0.61093 -0.3187,-0.91639 z m -77.611726,12.52057 c -0.07823,-0.0332 -0.156465,-0.0675 -0.234698,-0.10068 -0.39787,0.10983 -0.796298,0.21852 -1.190069,0.32606 0.06221,0.29631 0.405879,0.39927 0.71881,0.29173 0.299147,-0.10182 0.475729,-0.33979 0.705957,-0.51711 z m 102.502216,-4.41721 c -0.26544,-0.14758 -0.54931,-0.30546 -0.83448,-0.46449 -0.51019,0.31004 -0.54316,0.58118 -0.0546,0.77682 0.42022,0.16817 0.70354,-0.007 0.88906,-0.31233 z m 33.05035,-7.60455 c 0.59233,0.33521 0.94066,0.59148 1.49387,0.40729 0.16392,-0.0549 0.17509,-0.28487 0.28499,-0.48852 -0.60351,0.0275 -1.04497,0.0481 -1.77886,0.0812 z m 2.12718,-1.32711 c 0.13225,0.60407 0.22539,1.03538 0.33342,1.5399 0.85125,-0.62007 0.82704,-0.75622 -0.33342,-1.5399 z m -35.82574,2.41282 c 0.60574,-1.18753 0.59419,-1.32596 -0.11121,-1.61655 -0.46772,0.52741 0.0563,0.99876 0.11121,1.61655 z m -78.480297,8.99458 c -0.61301,0.12356 -0.832807,0.34779 -0.662557,0.61436 0.101516,0.16017 0.450583,0.35466 0.697388,0.35924 0.270835,0.006 0.552473,-0.18878 0.92352,-0.33293 -0.348136,-0.13385 -0.551542,-0.18076 -0.67541,-0.26999 -0.126103,-0.0892 -0.174719,-0.22195 -0.282941,-0.37068 z m -4.920654,-9.99448 c -0.160936,0.78711 0.298588,1.29049 1.31878,1.501 0.797044,0.16474 1.123013,0.0492 1.823569,-0.64525 -0.461015,-0.98961 -0.465858,-0.99418 -2.054728,-0.93355 -0.370115,0.0137 -0.737622,0.0526 -1.087621,0.0778 z m 3.277766,-0.0927 c 0.364341,0.80084 0.657155,1.48155 0.985733,2.15654 0.315166,0.64525 0.316469,1.35571 1.140335,1.91287 -0.09965,-1.34198 -0.199866,-2.68396 -0.303059,-4.06941 -0.650449,0 -1.176657,0 -1.823009,0 z m 106.866485,6.23053 c 0.0764,-0.008 0.15088,-0.016 0.22538,-0.024 0,-0.70359 -0.0335,-1.40719 0.007,-2.10964 0.0745,-1.22757 0.20117,-2.45515 0.28871,-3.68272 0.013,-0.17046 -0.0633,-0.34207 -0.11176,-0.57546 -0.43401,0.0332 -0.78046,0.0595 -1.13065,0.0858 0.24774,2.15655 0.4843,4.23073 0.72086,6.30605 z M 71.751607,142.06392 c -0.704095,0 -1.291399,-0.016 -1.875723,0.003 -1.020192,0.0343 -1.147972,0.12241 -1.222293,0.74478 -0.07991,0.67156 0.27903,1.05711 1.114071,1.13948 0.228365,0.0229 0.5521,0.002 0.711173,-0.0835 0.81865,-0.43931 1.459599,-0.94499 1.272772,-1.80417 z m 23.33217,4.4092 c 0.114927,-0.0195 0.229855,-0.0401 0.344224,-0.0595 0.331185,-1.44495 -0.109153,-2.84413 -0.755878,-4.22387 -0.198189,-0.42444 -0.415751,-0.44275 -1.530381,-0.25626 0.647469,1.51244 1.294752,3.02603 1.942035,4.53962 z m 79.713573,-4.4092 c 0.47871,1.01707 1.83102,1.58566 3.15352,1.40376 1.03752,-0.14186 1.64662,-0.69788 1.47525,-1.40376 -1.49946,0 -3.0101,0 -4.62877,0 z m -137.347447,0.1636 c -0.392841,0.63266 -0.191298,1.10516 0.517639,1.42549 0.744329,0.33521 1.660025,0.2803 2.430617,0.0469 0.928176,-0.28029 1.361809,-0.7997 1.318781,-1.4724 -1.450659,0 -2.831094,0 -4.267037,0 z m 113.996837,-0.57775 c 0.67094,1.0308 2.46489,1.68634 3.8051,1.48499 1.23384,-0.18648 1.9126,-0.73563 1.75017,-1.48499 -1.79488,0 -3.60168,0 -5.55527,0 z m -133.982882,0.34665 c 0.195396,0.38212 0.262453,0.72304 0.529003,0.98961 0.55508,0.55487 1.440227,0.82143 2.498977,0.75508 0.986105,-0.0606 1.589615,-0.47364 1.958799,-1.00449 0.262452,-0.37754 0.09164,-0.62579 -0.467907,-0.64639 -1.4311,-0.0526 -2.866112,-0.0629 -4.518872,-0.0938 z m 147.435752,-0.13843 c 0.21011,0.87863 0.85962,1.40948 2.02418,1.59253 1.26103,0.19906 2.45874,0.0172 3.35469,-0.60406 0.21234,-0.14873 0.3241,-0.43017 0.25705,-0.62237 -0.0373,-0.10983 -0.51783,-0.21852 -0.81027,-0.22996 -1.55534,-0.0606 -3.11441,-0.0915 -4.82565,-0.13614 z m -36.96926,-0.095 c -1.33927,-0.19678 -4.17408,-0.1819 -4.84596,0.009 0.27233,0.30546 0.54949,0.60292 0.80599,0.90724 0.62046,0.73562 1.63301,0.9999 2.86872,0.73906 1.05763,-0.22309 1.46984,-0.80542 1.17125,-1.65545 z m -32.61411,0.0584 c 0.58153,0.49881 1.027829,0.90152 1.510636,1.28592 0.231905,0.18419 0.505533,0.36038 0.81176,0.49538 0.697389,0.31004 1.492195,0.29288 2.090303,-0.0789 0.736321,-0.45763 1.266071,-0.98389 0.904891,-1.74469 -1.729688,-0.17847 -3.452114,-0.1533 -5.31759,0.0423 z m -61.793621,0.40156 c -0.5955,0 -1.190814,0.005 -1.786873,-0.001 -0.841188,-0.007 -1.106435,0.15673 -0.873413,0.65897 0.133555,0.28831 0.371046,0.60979 0.726819,0.7997 1.509333,0.80084 4.202216,0.33864 4.885822,-0.80885 0.227433,-0.38097 0.01602,-0.61779 -0.653989,-0.64181 -0.763701,-0.0275 -1.531685,-0.006 -2.298366,-0.007 z m 95.389001,-0.54571 c 0.91457,1.53532 2.62154,1.70579 4.36855,1.63028 1.25266,-0.0538 2.03275,-0.70817 2.08937,-1.63028 -2.11359,0 -4.22494,0 -6.45792,0 z m 29.08022,0.003 c 0.32634,0.75851 0.85032,1.31681 1.71889,1.72409 0.3187,0.14987 0.76444,0.24941 1.16641,0.27 1.61067,0.0812 2.98253,-0.70131 3.11814,-1.82935 -1.92639,-0.16474 -3.86917,-0.1533 -6.00344,-0.16474 z m -100.784259,0.53198 c -0.209366,0.7036 -0.161495,1.2619 0.509631,1.73325 0.655292,0.45991 1.955819,0.62351 2.798497,0.37754 1.007526,-0.29402 1.790412,-1.11889 1.642888,-1.72066 -0.07153,-0.29174 -0.390419,-0.3867 -0.809709,-0.38784 -1.350447,-0.005 -2.701079,-0.002 -4.141307,-0.002 z m -0.845845,-0.0583 c -1.667102,-0.0172 -3.326009,-0.18077 -5.014905,-0.0503 -0.03576,0.68186 0.287785,1.18753 0.854227,1.62914 0.81716,0.63838 2.50084,0.79397 3.292481,0.28944 0.767053,-0.48966 1.193608,-1.07312 0.868197,-1.86824 z M 142.116,141.62193 c -1.91168,-0.095 -3.82447,-0.0881 -5.74769,0.0229 0.23433,1.43465 1.45066,2.1291 3.44764,2.03871 1.44172,-0.0641 2.34829,-0.8466 2.30005,-2.06159 z m -40.60112,0.1247 c 0.31293,0.80771 0.89949,1.49529 1.80606,2.06159 1.11854,0.69902 2.81861,0.46106 3.45752,-0.43245 0.38632,-0.53999 0.17527,-1.05368 0.0702,-1.62914 -1.80439,0 -3.53743,0 -5.3338,0 z m 6.00977,-0.016 c 0.51708,1.23558 1.47822,1.94147 2.90206,2.1863 1.09265,0.18762 2.06758,-0.04 2.61446,-0.64983 0.46399,-0.51711 0.73092,-1.05825 0.1153,-1.72981 -1.82971,0.0629 -3.71717,0.12813 -5.63182,0.19334 z m 18.32881,17.10252 c -0.41184,-0.19678 -0.64915,-0.3375 -0.92631,-0.43589 -0.4368,-0.15559 -0.87844,-0.33521 -1.35734,-0.40957 -0.87025,-0.135 -1.39385,0.18076 -1.08129,0.69673 0.2414,0.39813 0.67727,0.79512 1.19491,1.07541 0.65268,0.35237 1.47711,0.58462 2.3224,0.90495 0.64635,-0.45876 1.3836,-0.92783 2.01486,-1.44609 0.47704,-0.39126 0.66163,-0.85575 0.21496,-1.32825 -0.31834,-0.33635 -0.81716,-0.45876 -1.4162,-0.38326 -0.53105,0.0675 -0.74917,0.31462 -0.80282,0.63152 -0.0332,0.19449 -0.0903,0.38784 -0.16317,0.69445 z M 24.033732,147.69383 c 1.103268,0.60063 1.098425,1.10973 0.102262,1.57193 -0.531983,0.24712 -1.004918,0.16017 -1.124689,-0.2494 -0.08084,-0.27572 -0.02999,-0.57203 0.01788,-0.8569 0.09295,-0.55945 -0.120702,-0.84089 -0.752897,-0.91982 -0.619529,-0.0767 -1.219499,0.1819 -1.355289,0.65211 -0.265619,0.91524 0.564952,2.2332 2.253103,2.67137 0.238237,0.0618 0.668704,0.0835 0.816601,-0.002 1.020192,-0.59033 2.173194,-1.14977 2.488732,-2.04214 0.126476,-0.35809 0.06352,-0.79398 -0.1587,-1.13262 -0.318706,-0.48851 -1.157286,-0.54342 -1.784638,-0.17618 -0.20415,0.11898 -0.315166,0.2986 -0.502366,0.48393 z m 48.510075,-5.63906 c 0.19763,0.98846 0.799836,1.73553 2.136498,2.17256 0.837277,0.27343 1.828411,0.43246 2.671835,0.0446 1.113699,-0.51139 1.718885,-1.20355 1.430542,-2.14969 -2.060874,-0.21164 -4.080024,-0.11211 -6.238875,-0.0675 z m -49.359086,0.005 c 0.02329,1.79045 -0.221287,3.42188 0.399732,5.03957 1.084082,-1.55134 0.524718,-3.21136 0.810081,-4.83707 0.731663,0.0355 0.740604,0.35923 0.900236,0.61207 0.30045,0.47822 0.675968,0.88436 1.628545,0.98961 1.492755,0.16589 2.311218,-0.0595 3.016244,-0.91525 0.460455,-0.55944 0.292814,-0.77796 -0.698693,-0.83859 -0.678203,-0.04 -1.363485,-0.0446 -2.045227,-0.0481 -1.266067,-0.007 -2.531574,-0.002 -4.010918,-0.002 z m 91.260919,-0.49538 c -0.59494,1.47012 1.58402,2.37049 3.20847,2.49176 0.2401,0.0183 0.52937,-0.009 0.74042,-0.0789 1.22434,-0.40614 2.02865,-1.02393 2.32761,-1.86596 0.10561,-0.29745 -0.0518,-0.53999 -0.62177,-0.54343 -1.86957,-0.009 -3.73915,-0.003 -5.65473,-0.003 z m 10.03092,10.43266 c -0.57668,-0.32605 -0.96748,-0.58919 -1.427,-0.79283 -0.40234,-0.17962 -0.8749,-0.3947 -1.40242,-0.16474 -0.53961,0.23567 -0.77599,0.61664 -0.57128,0.97359 0.23153,0.405 0.57799,0.83516 1.07645,1.12118 0.85925,0.49537 1.87404,0.88778 2.93391,1.37286 0.95127,-0.77795 1.91689,-1.53761 2.55672,-2.41739 0.45915,-0.63037 0.0559,-1.16007 -0.99877,-1.60511 -1.04105,-0.43818 -1.94334,-0.18763 -2.07559,0.58347 -0.0466,0.27228 -0.0555,0.54571 -0.092,0.92897 z m -33.562775,-10.0933 c -3.791866,0.0583 -7.624898,0.11555 -11.591484,0.17619 0.529747,0.51825 0.930411,0.9816 1.441345,1.39231 0.509631,0.40958 1.195843,0.69902 2.105951,0.54114 0.906196,-0.15673 1.407258,-0.56516 1.616065,-1.11545 0.07059,-0.18534 0.118094,-0.37525 0.17621,-0.56173 0.49715,0.1922 0.763514,0.41414 0.991507,0.65096 0.548001,0.56746 1.310212,0.96673 2.36356,1.12004 0.543158,0.0801 1.127855,0.12126 1.573968,-0.15331 0.878442,-0.54114 1.786873,-1.08342 1.322878,-2.05015 z m -48.666539,0.2414 c 1.423836,2.13938 1.271282,4.35771 2.015238,6.49023 0.27754,-1.06054 0.312,-2.13252 0.609657,-3.1759 0.298774,-1.04681 0.08941,-2.15883 0.958537,-3.15874 0.237306,0.26656 0.332675,0.53771 0.450583,0.80541 0.344783,0.78025 1.454757,1.24474 2.67556,1.12461 0.892785,-0.0881 1.724287,-0.81113 1.712738,-1.4907 -0.0089,-0.53885 -0.224453,-0.6933 -1.13512,-0.69788 -2.129234,-0.008 -4.2594,0.003 -6.388634,0.0137 -0.247365,0.001 -0.493612,0.0469 -0.898559,0.0892 z m 131.257404,18.83576 c 0.25891,-0.20822 0.48802,-0.33521 0.60351,-0.49423 1.11947,-1.52618 2.23149,-3.05235 3.31185,-4.58882 0.19931,-0.28372 0.27009,-0.60521 0.36136,-0.91296 0.12852,-0.4336 -0.0149,-0.82372 -0.53459,-1.13147 -1.6075,0.18191 -2.5258,0.81228 -2.60217,1.74126 -0.0186,0.20593 -0.0242,0.44046 -0.18627,0.60635 -0.15646,0.15788 -0.50851,0.33521 -0.77301,0.33406 -0.23284,0 -0.61096,-0.21508 -0.66312,-0.36953 -0.0764,-0.22881 0.0503,-0.49194 0.14157,-0.7322 0.13225,-0.34779 0.36322,-0.683 0.45635,-1.03422 0.11549,-0.44161 -0.45635,-0.65097 -0.96114,-0.84089 -0.50852,-0.18991 -1.00213,-0.0824 -1.39888,0.15331 -0.30361,0.17962 -0.61655,0.37067 -0.8233,0.59262 -1.08595,1.17152 -1.20516,2.40138 -0.29059,3.61865 0.82331,1.09372 1.90926,2.0982 3.35843,3.05807 z M 69.63448,156.94239 c 0.504601,-0.405 0.930783,-0.79741 1.437247,-1.14521 1.458668,-1.00219 2.076893,-2.20917 2.326307,-3.50653 0.143613,-0.74478 -0.44928,-1.32596 -1.289164,-1.79731 -0.680811,-0.38212 -1.610291,-0.20822 -1.957681,0.33177 -0.154231,0.24025 -0.287413,0.50339 -0.296726,0.75851 -0.02421,0.63267 -0.697389,1.09601 -1.078867,1.62914 -0.276608,0.38783 -0.997654,0.43017 -1.537832,0.20822 -0.511307,-0.21051 -0.645979,-0.50453 -0.290951,-0.88893 0.246805,-0.26771 0.700928,-0.46678 0.915137,-0.74021 0.202474,-0.25741 0.360802,-0.59262 0.267667,-0.85804 -0.102261,-0.29288 -1.013859,-0.4153 -1.569497,-0.26542 -0.264688,0.0709 -0.57259,0.17275 -0.708566,0.31575 -0.38036,0.39928 -0.800209,0.80771 -0.989271,1.24703 -0.384458,0.89465 -0.02906,1.78015 0.471072,2.61989 0.549493,0.92325 1.495364,1.63142 3.208102,1.81562 0.325038,0.0343 0.626234,0.15445 1.093023,0.27572 z m 68.21001,-7.15837 c 0.0894,0.27572 0.15647,0.64182 0.33081,0.98732 0.4694,0.93241 1.40316,1.6852 2.64148,2.27096 1.00994,0.47821 2.22721,0.80427 3.15166,1.33168 0.9129,0.5194 2.02473,0.76423 3.04306,1.13605 0.57762,0.2105 1.0269,0.19563 1.5464,-0.16589 1.18337,-0.82372 2.49041,-1.57995 3.72612,-2.37621 0.82386,-0.53084 1.68927,-1.0491 2.39709,-1.636 1.50057,-1.24588 1.87796,-2.61532 0.88905,-4.08314 -0.50646,-0.75165 -1.39123,-1.22758 -2.6424,-1.49071 -1.15244,-0.24254 -2.28216,-0.17046 -3.40256,0.024 -1.87834,0.3272 -3.20568,2.15426 -2.24416,3.20908 0.39749,0.43589 0.29206,0.74364 -0.1045,1.0697 -0.18329,0.14986 -0.56067,0.33749 -0.78959,0.31118 -0.31368,-0.0366 -0.64412,-0.22996 -0.83505,-0.41072 -0.29821,-0.28029 -0.0769,-0.52627 0.27848,-0.76652 0.8911,-0.6052 0.8248,-1.56621 -0.13635,-2.09705 -1.11314,-0.61551 -3.45957,-0.99419 -5.04788,-0.48051 -2.02287,0.6544 -2.61166,1.78702 -2.80166,3.16675 z m -41.744619,0.6155 c 0,-0.17618 0,-0.35351 0,-0.60978 -0.292255,0.17161 -0.480945,0.28144 -0.678576,0.39813 -0.194092,-0.15559 -0.331744,-0.26542 -0.532914,-0.42559 -0.256492,0.43703 -0.196699,0.72991 0.44127,0.96444 0.275305,-0.12127 0.541296,-0.23796 0.808219,-0.35466 -0.105987,0.26543 -0.245316,0.54229 -0.79965,0.5011 -0.567747,-0.0435 -0.904893,-0.28716 -0.988527,-0.63266 -0.05756,-0.23568 -0.05085,-0.47708 -0.07246,-0.71618 -1.339642,0.99762 -2.069255,2.07761 -1.767128,3.34294 0.179376,0.75278 0.813621,1.32138 1.945573,1.64972 1.495736,0.43246 2.919572,-0.006 3.197672,-1.00219 0.0922,-0.32949 0.0021,-0.67728 0.01526,-1.01707 0.0048,-0.13156 0.06576,-0.26199 0.146595,-0.56287 0.365274,0.33292 0.577991,0.52054 0.778786,0.7116 0.845848,0.80656 1.962899,1.10287 3.506129,0.92669 1.24689,-0.14187 1.77794,-0.5686 1.56913,-1.33512 -0.10412,-0.38211 -0.2306,-0.7894 -0.53329,-1.12118 -1.35193,-1.48384 -3.499983,-2.33158 -6.135678,-2.73887 -0.384086,-0.0595 -0.813622,-0.008 -1.244646,-0.008 -0.11884,0.42216 -0.105429,0.73906 0.308087,1.02508 0.46176,0.31919 0.431398,0.6624 0.03614,1.00448 z M 69.69837,157.4698 c -0.868197,-0.24598 -1.720189,-0.4233 -2.460606,-0.71046 -1.787618,-0.68987 -2.651717,-1.75727 -2.880268,-3.01345 -0.09872,-0.54228 -0.102262,-1.1063 0.01397,-1.64744 0.281637,-1.31338 1.734531,-1.95062 4.03625,-1.74126 0.0162,-2.26294 -1.049995,-4.37487 -1.903105,-6.6035 -1.557017,0.65669 -2.780615,0.38555 -3.98484,-0.36495 -0.673733,0.66012 -1.363485,1.30308 -2.775772,1.34426 -1.33927,0.0389 -2.265583,-0.37181 -3.067096,-1.11316 -0.752339,0.60177 -1.531686,1.05139 -2.870025,0.97245 -1.32325,-0.0767 -1.983572,-0.62351 -2.660472,-1.20584 -1.954328,1.53418 -3.28652,1.58909 -5.407372,0.23224 -0.07563,0.14187 -0.172485,0.2517 -0.187759,0.36496 -0.28648,2.1165 -0.565511,4.23416 -0.839139,6.3518 -0.07097,0.54915 -0.186455,1.10059 -0.151064,1.64745 0.02105,0.32148 0.153299,0.71847 0.484671,0.94156 1.578811,1.06054 2.238201,2.4048 3.131917,3.67471 0.371047,0.52741 0.624931,1.088 0.901726,1.63943 0.225198,0.44962 0.103751,0.61207 -0.598108,0.6544 -3.05741,0.18305 -6.104389,0.51368 -9.194024,0.33064 -1.079611,-0.0641 -2.133705,-0.24483 -2.842642,-0.79283 -1.177962,-0.90839 -0.725702,-2.05473 1.014231,-2.66223 0.440339,-0.1533 0.916441,-0.26885 1.494432,-0.43474 -0.389674,-0.98618 0.03632,-1.81219 1.409121,-2.40938 1.057259,-0.45991 1.752972,-0.54458 3.073988,-0.28487 -1.40018,0.11211 -2.515556,0.24025 -3.354695,0.84546 -0.928921,0.66813 -0.89949,1.30651 -0.04061,2.03642 -0.388556,0.0904 -0.642998,0.15559 -0.903588,0.20822 -0.404016,0.0824 -0.832433,0.13042 -1.215029,0.24025 -0.967478,0.27686 -1.598555,0.72419 -1.492196,1.41749 0.102261,0.67041 0.76575,1.11888 1.796559,1.2882 0.858884,0.13958 1.76806,0.2597 2.646129,0.23911 2.258877,-0.0515 4.514774,-0.17733 6.769181,-0.29288 0.676714,-0.0355 0.933391,-0.21965 0.715271,-0.56173 -0.852551,-1.34312 -1.756511,-2.67252 -2.673883,-3.99848 -0.122006,-0.17618 -0.429908,-0.30432 -0.762211,-0.52856 0,0.25856 0.05011,0.41644 -0.01118,0.55602 -0.108594,0.24711 -0.213091,0.51482 -0.449279,0.71618 -0.427673,0.36495 -1.212235,0.36724 -1.665985,0.0515 -0.340313,-0.23568 -0.257982,-0.71275 0.318705,-0.87291 0.677645,-0.18878 0.643185,-0.47479 0.673733,-0.82602 0.259286,-3.00429 -0.477965,-5.96397 -1.058191,-8.92937 -0.06799,-0.34664 -0.298588,-0.68071 -0.499386,-1.12003 -0.912901,0.53885 -1.549939,1.06741 -2.800359,1.0411 -1.092465,-0.0229 -2.058081,-0.0858 -2.557838,-0.85004 -1.085946,0.54686 -1.855793,1.27219 -3.341656,1.11775 -1.237009,-0.12814 -2.459675,-0.27687 -3.171034,-1.06398 -0.897069,0.34551 -1.395151,0.98504 -2.610738,0.94156 -1.070113,-0.0389 -1.996053,-0.18534 -2.670531,-0.75736 -0.365273,0.58003 -0.493984,2.26866 -0.258913,2.96654 0.06538,0.032 0.1248,0.0858 0.196699,0.0927 1.62333,0.15674 2.199458,0.59034 1.989906,1.59711 -0.07432,0.35466 -0.272324,0.72304 -0.562531,1.03194 -0.358939,0.38212 -0.87751,0.70817 -1.31729,1.06169 -0.406065,0.32719 -0.798905,0.66126 -1.260665,1.04337 -0.77972,-0.37067 -1.549008,-0.69215 -2.230005,-1.07312 -0.748241,-0.41873 -1.163992,-0.9633 -1.242225,-1.59482 -0.150691,-1.21727 0.257051,-1.59024 2.289798,-1.98036 0.02012,-0.97703 0.107291,-1.98151 -0.04527,-3.11984 -1.220803,0.3844 -2.303954,0.78939 -3.496817,0.45533 -0.716016,-0.20136 -1.334427,-0.53199 -2.185488,-0.88321 -1.335358,0.002 -1.73509,-0.23454 -1.67921,-1.24588 0.02459,-0.43932 0.05551,-0.91181 0.332304,-1.30308 0.232835,-0.32949 0.785866,-0.59606 1.27985,-0.82258 0.207875,-0.095 0.759975,-0.0961 0.918676,0.003 0.215885,0.135 0.25258,0.40499 0.273628,0.62122 0.01341,0.14072 -0.136907,0.28716 -0.25407,0.50567 0.399732,0.0378 0.716202,0.0938 1.031369,0.0915 2.262602,-0.0217 4.524087,-0.0709 6.787062,-0.0789 1.664867,-0.006 3.331784,0.0709 4.996092,0.0515 4.057858,-0.0492 8.113853,-0.16245 12.17227,-0.19449 4.141865,-0.0309 8.285033,-0.001 12.427271,0.0126 3.204935,0.009 6.409683,0.0641 9.613686,0.0458 6.109791,-0.0355 12.219582,-0.0927 18.328441,-0.17161 3.116271,-0.0412 6.229561,-0.15903 9.344901,-0.22538 2.347914,-0.0503 4.697135,-0.0812 7.046351,-0.11212 4.911717,-0.0641 9.823427,-0.15445 14.735507,-0.17161 3.79951,-0.0126 7.59938,0.0744 11.39926,0.10869 1.27854,0.0114 2.55746,-0.007 3.83639,-0.009 3.75666,-0.007 7.51257,-0.0183 11.26923,-0.0183 5.76054,-0.002 11.52294,-0.0412 17.28218,0.0195 5.12312,0.0538 10.24159,0.24139 15.36397,0.33177 2.60031,0.0469 5.20434,0.008 7.80651,0.008 0.0391,-0.0469 0.10245,-0.0904 0.1099,-0.13728 0.1248,-0.77796 0.7488,-1.06055 1.81612,-0.6933 0.6687,0.22995 1.28897,0.62008 1.682,1.02965 1.00213,1.04224 0.007,2.6668 -1.75092,3.03061 -0.80096,0.16474 -1.07477,0.12699 -1.34486,-0.36724 -0.29989,-0.54572 -1.08967,-0.40042 -1.60936,-0.58462 -2.30042,1.29965 -3.47763,1.28821 -5.8805,-0.0663 -0.0875,0.12241 -0.22165,0.22423 -0.22724,0.32834 -0.0782,1.46783 -0.18813,2.9368 -0.19372,4.40462 -0.004,1.54791 0.10617,3.09582 0.14902,4.64373 0.0186,0.68415 0.21607,1.34084 0.63331,2.06846 0.45449,-0.20479 0.80468,-0.38098 1.18467,-0.5297 0.54948,-0.21737 1.17907,-0.42674 1.7919,-0.19792 0.56811,0.21165 0.83448,0.60635 0.74321,1.02507 -0.11735,0.54228 -0.15833,1.12003 -0.50665,1.60969 -1.2331,1.72982 -2.57982,3.42874 -3.89115,5.13682 -0.0689,0.0892 -0.20489,0.15902 -0.37813,0.29059 -1.25917,-0.85232 -2.49786,-1.6646 -3.35469,-2.65879 -0.41724,-0.48508 -0.84566,-0.97817 -1.10457,-1.49872 -0.56812,-1.13719 -0.26636,-2.23434 0.68546,-3.26285 0.86615,-0.93469 1.78073,-1.18639 3.51117,-0.97016 0.0354,-0.0995 0.10989,-0.20021 0.10058,-0.2986 -0.0726,-0.70474 -0.0335,-1.42549 -0.26822,-2.11078 -0.95184,-2.77434 -0.52528,-5.63563 -1.33368,-8.47175 -0.78978,0.47479 -1.38957,0.95643 -2.16817,1.27105 -0.83076,0.3375 -1.85523,0.32148 -2.85922,0.22881 -1.08017,-0.0995 -1.62817,-0.6258 -2.32649,-1.03194 -2.74001,1.81676 -3.85315,1.7813 -6.84742,-0.23682 -0.89856,0.54457 -1.78817,1.14291 -3.25392,0.96444 -1.29922,-0.15902 -2.39318,-0.53885 -3.3614,-1.22414 -0.7935,0.68415 -1.75055,1.15092 -3.40517,1.10173 1.08054,-0.54228 2.89647,-0.48966 2.63439,-1.68977 -0.86093,0 -1.68759,0 -2.5705,0 -0.80059,1.57422 -0.56812,3.17933 -0.76445,4.8016 0.93656,-0.67614 2.13427,-0.99876 3.46552,-1.22871 1.98842,-0.34208 5.22875,0.54914 5.98239,2.12337 0.82833,1.72867 0.0179,3.1576 -1.70585,4.4561 -0.94028,0.70817 -2.10036,1.30422 -3.11962,1.97464 -0.96021,0.63152 -1.88206,1.28592 -2.7903,1.94604 -0.60761,0.44275 -0.81679,0.5011 -1.62557,0.25513 -0.99504,-0.30089 -2.05063,-0.55716 -2.94602,-0.94842 -1.65406,-0.7219 -3.26156,-1.493 -4.79175,-2.31214 -1.15785,-0.61894 -1.72522,-1.49185 -2.10036,-2.39337 -0.56552,-1.36029 1.09451,-3.47908 3.15538,-4.07971 1.50728,-0.44046 2.98756,-0.34207 4.45163,0.0721 0.38483,0.10869 0.74917,0.24483 1.20702,0.39585 0.52025,-0.59491 -0.12648,-1.12347 -0.14883,-1.66346 -0.0239,-0.57661 -0.0581,-1.1555 -0.14492,-1.72982 -0.0859,-0.5663 -0.24326,-1.12918 -0.37738,-1.72981 -0.77692,0 -1.40148,0 -2.12792,0 0.22631,0.7219 1.06545,1.01707 2.0551,1.22185 -0.67896,0.42674 -0.67896,0.42674 -2.4364,-0.4233 -0.62307,0.47936 -1.15207,1.02508 -1.89323,1.41978 -0.87788,0.46906 -2.0402,0.27572 -2.92814,0.0172 -0.87043,-0.25284 -1.54547,-0.75965 -2.4105,-1.20812 -0.6674,0.77452 -1.75185,1.13261 -3.30533,1.01478 -1.41099,-0.10754 -2.66886,-0.33064 -3.52048,-1.09944 -2.12122,1.83163 -3.42268,1.41405 -5.6199,0.51482 0.41892,2.37278 0.82442,4.67004 1.23757,7.00735 0.12107,0 0.28834,0.0195 0.43884,-0.003 1.36312,-0.20593 2.081,-0.0664 2.87599,0.60978 0.69367,0.59033 0.75904,1.2024 0.0924,1.83278 -0.76836,0.72647 -1.4881,1.4724 -2.27545,2.19087 -0.30754,0.28029 -0.43364,0.55143 -0.36472,0.88207 0.11754,0.56974 0.20154,1.14177 0.31256,1.78816 0.28164,-0.0709 0.45766,-0.11441 0.63201,-0.16017 1.57266,-0.40957 3.03226,0.2311 2.80352,1.27105 -0.0766,0.34665 -0.33491,0.70931 -0.66479,0.99762 -0.75457,0.66012 -1.60489,1.2802 -2.44179,1.93574 -0.0166,0 -0.14715,0.016 -0.17528,-0.009 -0.68118,-0.62237 -1.68852,-1.01936 -2.6357,-1.45868 -0.71434,-0.33063 -1.15691,-0.77453 -1.28581,-1.31681 -0.17695,-0.74364 0.64691,-1.21956 1.84145,-1.08113 0.3662,0.0423 0.72459,0.10868 1.20665,0.1819 0.12461,-0.95986 0.0416,-1.84307 -0.29468,-2.70912 -0.0885,-0.22882 -0.44518,-0.44161 -0.75457,-0.60864 -0.67281,-0.36267 -1.41005,-0.68186 -2.0918,-1.03881 -0.81846,-0.43016 -1.26551,-0.96329 -1.24185,-1.65202 0.0259,-0.75279 1.23869,-1.46553 2.45521,-1.03194 0.13727,0.0492 0.31647,0.0538 0.47777,0.0789 0.47573,-1.24473 -1.04068,-7.42035 -2.07056,-8.34246 -0.16018,0.17275 -0.30678,0.32377 -0.44033,0.47821 -1.6049,1.85223 -3.72351,1.92316 -6.23404,0.6361 -0.25183,-0.12928 -0.45785,-0.29059 -0.69571,-0.44504 -1.84443,1.73782 -4.01706,1.50672 -6.39944,0.008 -0.14622,0.1636 -0.3187,0.30432 -0.40234,0.46106 -0.6307,1.18295 -3.08852,1.22414 -4.10554,0.54914 -0.49007,-0.32491 -0.89241,-0.69901 -1.34262,-1.04795 -0.0987,-0.0755 -0.2319,-0.135 -0.35168,-0.20364 -2.089557,1.57994 -3.307379,1.906 -5.6037,-0.0366 0.121074,1.61312 0.248109,3.30175 0.376262,5.01097 0.991694,0.20593 2.090863,0.40614 3.156134,0.66012 2.042624,0.48851 3.537614,1.37973 4.479014,2.57184 0.35633,0.45076 0.43177,1.01135 0.46455,1.52617 0.0447,0.70245 -0.46679,1.05482 -1.59464,1.22414 -1.48959,0.22195 -2.890146,0.13157 -4.142425,-0.58804 -0.133559,0.1739 -0.264505,0.29745 -0.327089,0.43245 -0.333609,0.72305 -1.04441,1.20813 -2.286261,1.31109 -1.360319,0.11212 -2.456136,-0.22194 -3.185191,-0.9141 -0.88999,-0.84546 -0.939724,-1.78473 -0.505532,-2.73086 0.408486,-0.89237 1.020006,-1.73325 2.032561,-2.43227 0.625489,-0.43246 0.830757,-0.92326 0.621392,-1.45868 -0.656597,-1.6829 -1.353054,-3.36009 -2.043738,-5.03728 -0.125731,-0.30432 -0.241031,-0.63724 -1.049809,-0.57432 0.05868,0.88093 -0.661625,1.56393 -1.551244,2.20918 -0.669075,0.48508 -1.500578,0.6441 -2.404166,0.39127 -0.987409,-0.27801 -1.898075,-0.65669 -2.933914,-1.02394 -0.628097,0.50797 -1.395151,1.07656 -2.77838,0.98389 -1.261969,-0.0835 -1.88336,-0.73105 -2.673697,-1.25045 -2.050629,2.40137 -5.140263,2.03184 -7.154943,-0.0126 -0.507022,0.32605 -0.914205,0.72419 -1.500392,0.92554 -0.53459,0.18419 -1.263272,0.15331 -2.005366,0.22767 0.127408,2.17371 0.258354,4.40576 0.389301,6.63782 0.08401,0.0171 0.1682,0.0355 0.25258,0.0526 0.169877,-0.15331 0.336214,-0.30775 0.510562,-0.45877 0.807287,-0.70016 1.9737,-0.75394 2.880269,-0.10869 0.877138,0.62351 1.299222,1.33855 1.060426,2.18172 -0.349999,1.24016 -1.06173,2.36362 -2.418137,3.33493 -0.653989,0.46792 -1.143874,1.02279 -1.703611,1.53418"
       style="fill:#ffe6d5;fill-opacity:1;fill-rule:nonzero;stroke:none;stroke-width:0.014598"
       id="path75" />
  </g>
</svg>
